# xmcd
#
# Track frame offsets: 
#        150
#        674
#        14738
#        31431
#        49549
#        65191
#        82630
#        97985
#        113090
#        131197
#        153763
#        173675
#        193743
#        208003
#        224751
#        243269
#        257155
#        275585
#        289088
#        302219
#        318047
#
# Disc length: 4430 seconds
#
# Revision: 0
# Processed by: cddbd v1.5.2PL0 Copyright (c) Steve Scherf et al.
# Submitted via: ExactAudioCopy v0.99pb4
#
DISCID=2a114c15
DTITLE=Various Artist - prevue promo 1071A-1
DYEAR=2001
DGENRE=pop
TTITLE0=blank - data
TTITLE1=Plus One - Soul Tattoo
TTITLE2=Semisonic - Act Naturally
TTITLE3=Mary J. Blige - Family Affair
TTITLE4=Eden's Crush - Love This Way
TTITLE5=Allure - Enjoy Yourself
TTITLE6=LP - Love Somebody
TTITLE7=Kristin Hersh - Trouble
TTITLE8=Jime White - 10 Miles To Go On A 9 Mile Road
TTITLE9=Frank Black And The Catholics - St. Francis Dam Disaster
TTITLE10=Chris Whitley - To Joy (Revolution Of The Innocents)
TTITLE11=Nanci Griffith - Where Would I Be
TTITLE12=Geggy Tah - One Zero
TTITLE13=Vertical Horizon - Send It Up
TTITLE14=Systematic - Deep Colors Bleed
TTITLE15=CKY - Disengage The Simulator
TTITLE16=Dust To Dust - New Low
TTITLE17=Nonpoint - Endure
TTITLE18=Soil - Halo
TTITLE19=Puya - Ride
TTITLE20=Beautiful Creatures - Wasted
EXTD=
EXTT0=
EXTT1=
EXTT2=
EXTT3=
EXTT4=
EXTT5=
EXTT6=
EXTT7=
EXTT8=
EXTT9=
EXTT10=
EXTT11=
EXTT12=
EXTT13=
EXTT14=
EXTT15=
EXTT16=
EXTT17=
EXTT18=
EXTT19=
EXTT20=
PLAYORDER=
